<svg xmlns="http://www.w3.org/2000/svg" xmlns:xlink="http://www.w3.org/1999/xlink" width="504" height="376" viewBox="0 0 378 282"><defs><path id="a" d="M3.18-6.64q-.761 0-1.149.75c-.261.5-.383 1.25-.383 2.25s.122 1.75.383 2.25q.386.75 1.149.75c.511 0 .89-.25 1.148-.75.25-.5.383-1.25.383-2.25s-.133-1.75-.383-2.25c-.258-.5-.637-.75-1.148-.75m0-.782c.808 0 1.43.332 1.87.973.43.648.65 1.59.65 2.808 0 1.23-.22 2.172-.65 2.813-.44.637-1.062.957-1.878.957Q1.943.129 1.3-.828C.87-1.468.66-2.41.66-3.641c0-1.218.21-2.16.64-2.808.43-.64 1.058-.973 1.879-.973m0 0"/><path id="b" d="M1.078-7.29H4.95v.83H1.98v1.788c.141-.047.29-.09.43-.11.14-.019.29-.038.43-.038.808 0 1.45.23 1.93.672.48.449.718 1.046.718 1.808 0 .79-.25 1.399-.738 1.828-.488.434-1.18.64-2.059.64-.312 0-.62-.026-.941-.07a5.6 5.6 0 0 1-.98-.23v-.988q.432.24.91.36c.308.081.64.109.992.109.558 0 1.008-.137 1.34-.438.316-.3.488-.7.488-1.21 0-.5-.172-.9-.488-1.2-.332-.3-.782-.45-1.34-.45a3.4 3.4 0 0 0-.793.09 4.4 4.4 0 0 0-.8.27Zm0 0"/><path id="c" d="M1.238-.828h1.614v-5.563l-1.75.352v-.902L2.84-7.29h.988v6.46h1.613V0H1.238Zm0 0"/><path id="d" d="M1.922-.828h3.437V0H.73v-.828c.372-.383.88-.902 1.532-1.563A72 72 0 0 0 3.48-3.648q.48-.528.66-.903c.122-.238.188-.488.188-.73 0-.38-.137-.7-.406-.938-.274-.242-.621-.37-1.063-.37-.308 0-.64.058-.98.16q-.51.162-1.098.488v-1q.6-.238 1.11-.36a4.3 4.3 0 0 1 .949-.12q1.126 0 1.8.57c.45.382.68.882.68 1.511 0 .3-.058.59-.172.852-.109.27-.308.59-.609.949-.078.098-.34.367-.777.82-.442.45-1.051 1.078-1.84 1.89m0 0"/><path id="e" d="M4.059-3.93c.472.102.84.309 1.101.63.262.32.399.722.399 1.179 0 .723-.25 1.281-.739 1.672-.5.39-1.199.578-2.11.578a5 5 0 0 1-.948-.09 6 6 0 0 1-1-.258v-.953c.27.16.566.281.898.363q.48.118 1.02.118.93.002 1.41-.36c.32-.238.488-.597.488-1.07 0-.418-.148-.758-.45-1-.3-.238-.718-.367-1.257-.367H2.02v-.813h.89c.48 0 .852-.09 1.11-.289q.39-.285.39-.84c0-.37-.14-.66-.398-.86q-.41-.298-1.14-.3-.407 0-.872.09a8 8 0 0 0-1.02.27v-.88c.372-.1.72-.18 1.051-.23.32-.05.63-.082.93-.082q1.107.001 1.77.512.66.51.66 1.379c0 .402-.121.742-.352 1.02-.23.28-.559.48-.98.581m0 0"/><path id="f" d="M3.781-6.43 1.29-2.54h2.492Zm-.261-.86h1.242v4.75H5.8v.821H4.76V0h-.98v-1.719H.488v-.953Zm0 0"/><path id="g" d="M3.3-4.04c-.44 0-.788.161-1.05.462-.262.297-.39.719-.39 1.238q-.002.798.39 1.25.391.45 1.05.45.658 0 1.052-.45.386-.452.386-1.25c0-.52-.129-.941-.386-1.238-.262-.3-.614-.461-1.051-.461m1.962-3.089v.899a3.44 3.44 0 0 0-1.5-.36q-.99 0-1.5.66c-.34.442-.543 1.11-.582 1.989.191-.278.43-.5.718-.649.293-.148.614-.23.961-.23.73 0 1.313.23 1.73.672.423.437.641 1.046.641 1.808 0 .75-.23 1.352-.671 1.8C4.62-.09 4.03.13 3.3.13c-.84 0-1.492-.32-1.93-.957C.921-1.468.7-2.41.7-3.641c0-1.148.27-2.07.82-2.75.54-.68 1.282-1.03 2.2-1.03.242 0 .492.03.75.07.25.05.511.12.793.222m0 0"/></defs><path fill="#fff" d="M19.602 266.984h357.117V.871H19.602Zm0 0"/><path fill="#1f77b4" fill-opacity=".1" stroke="#1f77b4" stroke-linejoin="round" stroke-miterlimit="10" stroke-opacity=".1" d="m35.832 254.887 17.086-9.766 17.09-11.504 17.086-10.945 17.086-12.3 17.09-11.563 17.085-12.09 17.086-11.008 17.09-12.195 17.086-9.907 17.086-12.199 17.086-12.25 17.09-13.277 17.086-12.86 17.086-12.785 17.09-10.949 17.086-11.867 17.086-13.375 17.085-12.649 17.09-10.25v-18.18l-17.09 11.876-17.086 12.43-17.085 14.902L292.14 63.91l-17.09 12.9-17.086 12.78-17.086 12.962-17.09 14.258-17.086 12.336-17.086 13.12-17.086 10.505-17.09 12.144-17.086 11.363-17.085 13.48-17.09 14.009-17.086 13.757-17.086 10.942-17.09 11.851Zm0 0"/><path fill="none" stroke="#000" stroke-linejoin="round" stroke-miterlimit="10" stroke-width=".8" d="M27.29 266.984v3.5"/><use xlink:href="#a" x="24.109" y="281.578"/><path fill="none" stroke="#000" stroke-linejoin="round" stroke-miterlimit="10" stroke-width=".8" d="M70.008 266.984v3.5"/><use xlink:href="#b" x="66.827" y="281.578"/><path fill="none" stroke="#000" stroke-linejoin="round" stroke-miterlimit="10" stroke-width=".8" d="M112.723 266.984v3.5"/><use xlink:href="#c" x="106.365" y="281.578"/><use xlink:href="#a" x="112.725" y="281.578"/><path fill="none" stroke="#000" stroke-linejoin="round" stroke-miterlimit="10" stroke-width=".8" d="M155.441 266.984v3.5"/><use xlink:href="#c" x="149.083" y="281.578"/><use xlink:href="#b" x="155.443" y="281.578"/><path fill="none" stroke="#000" stroke-linejoin="round" stroke-miterlimit="10" stroke-width=".8" d="M198.16 266.984v3.5"/><use xlink:href="#d" x="191.801" y="281.578"/><use xlink:href="#a" x="198.161" y="281.578"/><path fill="none" stroke="#000" stroke-linejoin="round" stroke-miterlimit="10" stroke-width=".8" d="M240.879 266.984v3.5"/><use xlink:href="#d" x="234.518" y="281.578"/><use xlink:href="#b" x="240.878" y="281.578"/><path fill="none" stroke="#000" stroke-linejoin="round" stroke-miterlimit="10" stroke-width=".8" d="M283.594 266.984v3.5"/><use xlink:href="#e" x="277.236" y="281.578"/><use xlink:href="#a" x="283.596" y="281.578"/><path fill="none" stroke="#000" stroke-linejoin="round" stroke-miterlimit="10" stroke-width=".8" d="M326.313 266.984v3.5"/><use xlink:href="#e" x="319.954" y="281.578"/><use xlink:href="#b" x="326.314" y="281.578"/><path fill="none" stroke="#000" stroke-linejoin="round" stroke-miterlimit="10" stroke-width=".8" d="M369.031 266.984v3.5"/><use xlink:href="#f" x="362.671" y="281.578"/><use xlink:href="#a" x="369.031" y="281.578"/><path fill="none" stroke="#000" stroke-linejoin="round" stroke-miterlimit="10" stroke-width=".8" d="M19.602 258.574h-3.5"/><use xlink:href="#a" x="6.241" y="262.373"/><path fill="none" stroke="#000" stroke-linejoin="round" stroke-miterlimit="10" stroke-width=".8" d="M19.602 221.695h-3.5"/><use xlink:href="#c" x="-.119" y="225.494"/><use xlink:href="#a" x="6.241" y="225.494"/><path fill="none" stroke="#000" stroke-linejoin="round" stroke-miterlimit="10" stroke-width=".8" d="M19.602 184.816h-3.5"/><use xlink:href="#d" x="-.119" y="188.614"/><use xlink:href="#a" x="6.241" y="188.614"/><path fill="none" stroke="#000" stroke-linejoin="round" stroke-miterlimit="10" stroke-width=".8" d="M19.602 147.938h-3.5"/><use xlink:href="#e" x="-.119" y="151.735"/><use xlink:href="#a" x="6.241" y="151.735"/><path fill="none" stroke="#000" stroke-linejoin="round" stroke-miterlimit="10" stroke-width=".8" d="M19.602 111.059h-3.5"/><use xlink:href="#f" x="-.119" y="114.856"/><use xlink:href="#a" x="6.241" y="114.856"/><path fill="none" stroke="#000" stroke-linejoin="round" stroke-miterlimit="10" stroke-width=".8" d="M19.602 74.18h-3.5"/><use xlink:href="#b" x="-.119" y="77.977"/><use xlink:href="#a" x="6.241" y="77.977"/><path fill="none" stroke="#000" stroke-linejoin="round" stroke-miterlimit="10" stroke-width=".8" d="M19.602 37.3h-3.5"/><use xlink:href="#g" x="-.119" y="41.098"/><use xlink:href="#a" x="6.241" y="41.098"/><path fill="none" stroke="#1f77b4" stroke-linecap="square" stroke-linejoin="round" stroke-miterlimit="10" stroke-width="1.5" d="m35.832 254.887 17.086-12.168 17.09-11.68 17.086-10.941 17.086-13.032 17.09-12.78 17.085-12.786 17.086-11.187 17.09-12.172 17.086-10.203 17.086-12.66 17.086-12.294 17.09-13.77 17.086-12.905 17.086-12.786 17.09-11.925 17.086-11.801 17.086-14.137 17.085-12.539 17.09-11.062"/><path fill="none" stroke="#000" stroke-linecap="square" stroke-miterlimit="10" stroke-width=".8" d="M19.602 266.984V.871m357.117 266.113V.871M19.602 266.984h357.117M19.602.871h357.117"/></svg>